<svg width="139" height="27" viewBox="0 0 139 27" fill="none" xmlns="http://www.w3.org/2000/svg">
<path d="M6.966 8.47849C8.598 8.47849 9.798 8.80849 10.566 9.46849C11.346 10.1285 11.736 10.9925 11.736 12.0605C11.736 12.4205 11.688 12.8225 11.592 13.2665C11.364 14.2505 10.938 15.1145 10.314 15.8585C9.69 16.5905 8.922 17.1605 8.01 17.5685C7.11 17.9645 6.132 18.1625 5.076 18.1625C3.408 18.1625 2.172 17.8325 1.368 17.1725C0.576 16.5005 0.18 15.6125 0.18 14.5085C0.18 14.1365 0.228 13.7225 0.324 13.2665C0.552 12.3305 0.984 11.5025 1.62 10.7825C2.268 10.0505 3.054 9.48649 3.978 9.09049C4.914 8.68249 5.91 8.47849 6.966 8.47849ZM6.912 10.0805C6.66 10.0805 6.39 10.3085 6.102 10.7645C5.826 11.2085 5.496 12.0545 5.112 13.3025C4.728 14.5505 4.536 15.4265 4.536 15.9305C4.536 16.1945 4.578 16.3745 4.662 16.4705C4.746 16.5545 4.86 16.5965 5.004 16.5965C5.256 16.6205 5.514 16.4045 5.778 15.9485C6.054 15.4925 6.396 14.6045 6.804 13.2845C7.176 12.1205 7.362 11.2745 7.362 10.7465C7.362 10.4945 7.32 10.3205 7.236 10.2245C7.164 10.1285 7.056 10.0805 6.912 10.0805ZM22.4949 15.5165C22.4709 15.5645 22.4589 15.6365 22.4589 15.7325C22.4589 15.8165 22.4769 15.8825 22.5129 15.9305C22.5609 15.9785 22.6209 16.0025 22.6929 16.0025C22.8369 16.0025 22.9569 15.9425 23.0529 15.8225C23.1609 15.6905 23.2329 15.6245 23.2689 15.6245C23.3289 15.6245 23.3769 15.6665 23.4129 15.7505C23.4489 15.8225 23.4669 15.9125 23.4669 16.0205C23.4789 16.3685 23.3649 16.7105 23.1249 17.0465C22.8849 17.3705 22.5309 17.6405 22.0629 17.8565C21.6069 18.0605 21.0549 18.1625 20.4069 18.1625C19.6149 18.1625 18.9849 17.9825 18.5169 17.6225C18.0489 17.2505 17.8089 16.7585 17.7969 16.1465C17.7969 15.7025 17.9049 15.2045 18.1209 14.6525L19.1109 12.0605C19.1709 11.9045 19.2009 11.7785 19.2009 11.6825C19.2009 11.5265 19.1469 11.4065 19.0389 11.3225C18.9429 11.2265 18.8229 11.1785 18.6789 11.1785C18.4509 11.1785 18.2169 11.2865 17.9769 11.5025C17.7489 11.7065 17.5629 12.0425 17.4189 12.5105V12.4745L16.2849 16.1285C16.2489 16.2725 16.2309 16.3985 16.2309 16.5065C16.2309 16.6625 16.2609 16.7885 16.3209 16.8845C16.3809 16.9685 16.4649 17.0525 16.5729 17.1365C16.6569 17.2205 16.7169 17.2925 16.7529 17.3525C16.7889 17.4005 16.7949 17.4665 16.7709 17.5505C16.7109 17.7065 16.5909 17.8205 16.4109 17.8925C16.2309 17.9645 15.9549 18.0005 15.5829 18.0005H11.4789C11.1669 18.0005 10.9389 17.9525 10.7949 17.8565C10.6509 17.7485 10.6029 17.6105 10.6509 17.4425C10.6989 17.2985 10.8249 17.1725 11.0289 17.0645C11.2089 16.9685 11.3589 16.8545 11.4789 16.7225C11.5989 16.5905 11.7009 16.3805 11.7849 16.0925L14.5209 7.11049C14.5569 7.00249 14.5749 6.91249 14.5749 6.84049C14.5749 6.70849 14.5389 6.60049 14.4669 6.51649C14.4069 6.43249 14.3229 6.34849 14.2149 6.26449C14.0949 6.16849 14.0049 6.08449 13.9449 6.01249C13.8969 5.94049 13.8909 5.84449 13.9269 5.72449C13.9989 5.44849 14.3769 5.20849 15.0609 5.00449C15.7449 4.80049 16.4589 4.69849 17.2029 4.69849C17.8989 4.69849 18.4089 4.83049 18.7329 5.09449C19.0689 5.35849 19.2369 5.71849 19.2369 6.17449C19.2369 6.43849 19.1949 6.69649 19.1109 6.94849L18.1389 10.1165C18.6069 9.50449 19.0989 9.07849 19.6149 8.83849C20.1429 8.59849 20.7129 8.47849 21.3249 8.47849C22.0569 8.47849 22.6449 8.70049 23.0889 9.14449C23.5449 9.58849 23.7729 10.1645 23.7729 10.8725C23.7729 11.2445 23.7129 11.6105 23.5929 11.9705L22.4949 15.5165ZM41.3582 15.5165C41.3342 15.5645 41.3222 15.6365 41.3222 15.7325C41.3222 15.8165 41.3402 15.8825 41.3762 15.9305C41.4242 15.9785 41.4842 16.0025 41.5562 16.0025C41.7002 16.0025 41.8202 15.9425 41.9162 15.8225C42.0242 15.6905 42.0962 15.6245 42.1322 15.6245C42.1922 15.6245 42.2402 15.6665 42.2762 15.7505C42.3122 15.8225 42.3302 15.9125 42.3302 16.0205C42.3422 16.3685 42.2282 16.7105 41.9882 17.0465C41.7482 17.3705 41.3942 17.6405 40.9262 17.8565C40.4702 18.0605 39.9182 18.1625 39.2702 18.1625C38.4782 18.1625 37.8482 17.9825 37.3802 17.6225C36.9122 17.2505 36.6722 16.7585 36.6602 16.1465C36.6602 15.7025 36.7682 15.2045 36.9842 14.6525L37.9742 12.0605C38.0342 11.9045 38.0642 11.7785 38.0642 11.6825C38.0642 11.5265 38.0102 11.4065 37.9022 11.3225C37.8062 11.2265 37.6862 11.1785 37.5422 11.1785C37.3382 11.1785 37.1282 11.2685 36.9122 11.4485C36.6962 11.6285 36.5042 11.9105 36.3362 12.2945L35.3462 15.5165C35.3222 15.5645 35.3102 15.6365 35.3102 15.7325C35.3102 15.8165 35.3282 15.8825 35.3642 15.9305C35.4122 15.9785 35.4722 16.0025 35.5442 16.0025C35.6882 16.0025 35.8082 15.9425 35.9042 15.8225C36.0122 15.6905 36.0842 15.6245 36.1202 15.6245C36.1802 15.6245 36.2282 15.6665 36.2642 15.7505C36.3002 15.8225 36.3182 15.9125 36.3182 16.0205C36.3302 16.3685 36.2162 16.7105 35.9762 17.0465C35.7362 17.3705 35.3822 17.6405 34.9142 17.8565C34.4582 18.0605 33.9062 18.1625 33.2582 18.1625C32.4662 18.1625 31.8362 17.9825 31.3682 17.6225C30.9002 17.2505 30.6602 16.7585 30.6482 16.1465C30.6482 15.7025 30.7562 15.2045 30.9722 14.6525L31.9622 12.0605C32.0222 11.9045 32.0522 11.7785 32.0522 11.6825C32.0522 11.5265 31.9982 11.4065 31.8902 11.3225C31.7942 11.2265 31.6742 11.1785 31.5302 11.1785C31.3262 11.1785 31.1162 11.2685 30.9002 11.4485C30.6842 11.6165 30.5042 11.8925 30.3602 12.2765L29.1722 16.1285C29.1242 16.2605 29.1002 16.3865 29.1002 16.5065C29.1002 16.6505 29.1302 16.7705 29.1902 16.8665C29.2502 16.9505 29.3342 17.0405 29.4422 17.1365C29.5262 17.2085 29.5862 17.2745 29.6222 17.3345C29.6582 17.3945 29.6642 17.4665 29.6402 17.5505C29.5922 17.7065 29.4782 17.8205 29.2982 17.8925C29.1182 17.9645 28.8362 18.0005 28.4522 18.0005H24.3482C24.0362 18.0005 23.8142 17.9525 23.6822 17.8565C23.5382 17.7485 23.4842 17.6105 23.5202 17.4425C23.5682 17.2985 23.6942 17.1725 23.8982 17.0645C24.0782 16.9685 24.2282 16.8545 24.3482 16.7225C24.4682 16.5905 24.5702 16.3805 24.6542 16.0925L26.2562 10.8905C26.2802 10.8305 26.2922 10.7465 26.2922 10.6385C26.2922 10.5065 26.2622 10.4045 26.2022 10.3325C26.1542 10.2605 26.0702 10.1705 25.9502 10.0625C25.8302 9.96649 25.7462 9.88249 25.6982 9.81049C25.6502 9.73849 25.6442 9.64249 25.6802 9.52249C25.7522 9.24649 26.1302 9.00649 26.8142 8.80249C27.4982 8.58649 28.2122 8.47849 28.9562 8.47849C29.5442 8.47849 30.0062 8.64049 30.3422 8.96449C30.6902 9.28849 30.8582 9.73249 30.8462 10.2965C31.3382 9.61249 31.8542 9.13849 32.3942 8.87449C32.9462 8.61049 33.5402 8.47849 34.1762 8.47849C34.8722 8.47849 35.4362 8.68249 35.8682 9.09049C36.3122 9.48649 36.5582 10.0085 36.6062 10.6565C37.1222 9.84049 37.6742 9.27649 38.2622 8.96449C38.8502 8.64049 39.4922 8.47849 40.1882 8.47849C40.9202 8.47849 41.5082 8.70049 41.9522 9.14449C42.4082 9.58849 42.6362 10.1645 42.6362 10.8725C42.6362 11.2445 42.5762 11.6105 42.4562 11.9705L41.3582 15.5165ZM52.4658 8.47849C52.9938 8.47849 53.4138 8.69449 53.7258 9.12649C54.0498 9.54649 54.2118 10.1225 54.2118 10.8545C54.2118 11.4905 54.0978 12.1745 53.8698 12.9065C53.4258 14.3825 52.7118 15.7745 51.7278 17.0825C50.7558 18.3905 49.6338 19.4405 48.3618 20.2325C47.1018 21.0245 45.8418 21.4205 44.5818 21.4205C43.9578 21.4205 43.4178 21.3125 42.9618 21.0965C42.5178 20.8805 42.1818 20.5925 41.9538 20.2325C41.7138 19.8725 41.5938 19.4885 41.5938 19.0805C41.5938 18.9005 41.6238 18.7025 41.6838 18.4865C41.7918 18.1505 41.9718 17.8925 42.2238 17.7125C42.4758 17.5325 42.7758 17.4425 43.1238 17.4425C43.6758 17.4425 44.1258 17.6285 44.4738 18.0005C44.8338 18.3845 45.0618 18.9065 45.1578 19.5665C45.9258 19.5305 46.6338 19.2005 47.2818 18.5765C46.6698 18.4685 46.2138 18.2645 45.9138 17.9645C45.6258 17.6525 45.4278 17.1725 45.3198 16.5245L44.5998 12.1145C44.5638 11.8865 44.5098 11.7305 44.4378 11.6465C44.3778 11.5505 44.2938 11.5025 44.1858 11.5025C44.1018 11.5025 43.9998 11.5445 43.8798 11.6285C43.7718 11.7125 43.6938 11.7545 43.6458 11.7545C43.5498 11.7545 43.5018 11.6525 43.5018 11.4485C43.5018 11.2805 43.5318 11.1005 43.5918 10.9085C43.8078 10.2245 44.2098 9.64849 44.7978 9.18049C45.3858 8.70049 46.0698 8.46049 46.8498 8.46049C47.6178 8.46049 48.1818 8.68849 48.5418 9.14449C48.9138 9.60049 49.1538 10.3025 49.2618 11.2505L49.8018 15.2105C49.8378 15.5105 49.9458 15.6605 50.1258 15.6605C50.3418 15.6605 50.5938 15.4685 50.8818 15.0845C51.1698 14.6885 51.4518 14.1305 51.7278 13.4105C51.3678 13.0865 51.0918 12.7145 50.8998 12.2945C50.7078 11.8745 50.6118 11.4245 50.6118 10.9445C50.6118 10.5725 50.6598 10.2365 50.7558 9.93649C50.8998 9.45649 51.1218 9.09649 51.4218 8.85649C51.7338 8.60449 52.0818 8.47849 52.4658 8.47849ZM61.4319 4.69849C62.7159 4.69849 63.6759 4.89649 64.3119 5.29249C64.9599 5.67649 65.2839 6.15049 65.2839 6.71449C65.2839 7.17049 65.0919 7.52449 64.7079 7.77649C64.3359 8.01649 63.8439 8.13649 63.2319 8.13649C62.6679 8.13649 62.2299 7.99849 61.9179 7.72249C61.6059 7.44649 61.4499 7.10449 61.4499 6.69649C61.4499 6.44449 61.5279 6.18049 61.6839 5.90449C61.3239 5.90449 61.0239 5.99449 60.7839 6.17449C60.5439 6.34249 60.3579 6.63649 60.2259 7.05649C60.1539 7.32049 60.1179 7.56649 60.1179 7.79449C60.1179 8.08249 60.1659 8.31049 60.2619 8.47849C60.3699 8.63449 60.5199 8.71249 60.7119 8.71249H61.7739C62.3979 8.71249 62.7099 8.90449 62.7099 9.28849C62.7099 9.33649 62.6979 9.40849 62.6739 9.50449C62.6019 9.76849 62.4519 9.96649 62.2239 10.0985C62.0079 10.2305 61.6779 10.2965 61.2339 10.2965H60.6939L58.9119 16.1285C58.8759 16.2725 58.8579 16.3985 58.8579 16.5065C58.8579 16.6625 58.8879 16.7885 58.9479 16.8845C59.0079 16.9685 59.0919 17.0525 59.1999 17.1365C59.2839 17.2205 59.3439 17.2925 59.3799 17.3525C59.4159 17.4005 59.4219 17.4665 59.3979 17.5505C59.3379 17.7065 59.2179 17.8205 59.0379 17.8925C58.8579 17.9645 58.5819 18.0005 58.2099 18.0005H54.1059C53.7939 18.0005 53.5659 17.9525 53.4219 17.8565C53.2779 17.7485 53.2299 17.6105 53.2779 17.4425C53.3259 17.2985 53.4519 17.1725 53.6559 17.0645C53.8359 16.9685 53.9859 16.8545 54.1059 16.7225C54.2259 16.5905 54.3279 16.3805 54.4119 16.0925L55.8159 11.4845C55.8759 11.3045 55.9059 11.1185 55.9059 10.9265C55.9059 10.6865 55.8519 10.5005 55.7439 10.3685C55.6479 10.2245 55.4979 10.0685 55.2939 9.90049C55.1619 9.79249 55.0599 9.70249 54.9879 9.63049C54.9279 9.54649 54.8979 9.45049 54.8979 9.34249C54.8859 9.11449 54.9639 8.95249 55.1319 8.85649C55.3119 8.76049 55.6479 8.71249 56.1399 8.71249H56.5899C56.5059 8.41249 56.4639 8.11249 56.4639 7.81249C56.4639 7.51249 56.5179 7.20049 56.6259 6.87649C56.8539 6.26449 57.3399 5.74849 58.0839 5.32849C58.8399 4.90849 59.9559 4.69849 61.4319 4.69849ZM68.5422 8.47849C70.1742 8.47849 71.3742 8.80849 72.1422 9.46849C72.9222 10.1285 73.3122 10.9925 73.3122 12.0605C73.3122 12.4205 73.2642 12.8225 73.1682 13.2665C72.9402 14.2505 72.5142 15.1145 71.8902 15.8585C71.2662 16.5905 70.4982 17.1605 69.5862 17.5685C68.6862 17.9645 67.7082 18.1625 66.6522 18.1625C64.9842 18.1625 63.7482 17.8325 62.9442 17.1725C62.1522 16.5005 61.7562 15.6125 61.7562 14.5085C61.7562 14.1365 61.8042 13.7225 61.9002 13.2665C62.1282 12.3305 62.5602 11.5025 63.1962 10.7825C63.8442 10.0505 64.6302 9.48649 65.5542 9.09049C66.4902 8.68249 67.4862 8.47849 68.5422 8.47849ZM68.4882 10.0805C68.2362 10.0805 67.9662 10.3085 67.6782 10.7645C67.4022 11.2085 67.0722 12.0545 66.6882 13.3025C66.3042 14.5505 66.1122 15.4265 66.1122 15.9305C66.1122 16.1945 66.1542 16.3745 66.2382 16.4705C66.3222 16.5545 66.4362 16.5965 66.5802 16.5965C66.8322 16.6205 67.0902 16.4045 67.3542 15.9485C67.6302 15.4925 67.9722 14.6045 68.3802 13.2845C68.7522 12.1205 68.9382 11.2745 68.9382 10.7465C68.9382 10.4945 68.8962 10.3205 68.8122 10.2245C68.7402 10.1285 68.6322 10.0805 68.4882 10.0805ZM80.3547 8.47849C81.9867 8.47849 83.1867 8.80849 83.9547 9.46849C84.7347 10.1285 85.1247 10.9925 85.1247 12.0605C85.1247 12.4205 85.0767 12.8225 84.9807 13.2665C84.7527 14.2505 84.3267 15.1145 83.7027 15.8585C83.0787 16.5905 82.3107 17.1605 81.3987 17.5685C80.4987 17.9645 79.5207 18.1625 78.4647 18.1625C76.7967 18.1625 75.5607 17.8325 74.7567 17.1725C73.9647 16.5005 73.5687 15.6125 73.5687 14.5085C73.5687 14.1365 73.6167 13.7225 73.7127 13.2665C73.9407 12.3305 74.3727 11.5025 75.0087 10.7825C75.6567 10.0505 76.4427 9.48649 77.3667 9.09049C78.3027 8.68249 79.2987 8.47849 80.3547 8.47849ZM80.3007 10.0805C80.0487 10.0805 79.7787 10.3085 79.4907 10.7645C79.2147 11.2085 78.8847 12.0545 78.5007 13.3025C78.1167 14.5505 77.9247 15.4265 77.9247 15.9305C77.9247 16.1945 77.9667 16.3745 78.0507 16.4705C78.1347 16.5545 78.2487 16.5965 78.3927 16.5965C78.6447 16.6205 78.9027 16.4045 79.1667 15.9485C79.4427 15.4925 79.7847 14.6045 80.1927 13.2845C80.5647 12.1205 80.7507 11.2745 80.7507 10.7465C80.7507 10.4945 80.7087 10.3205 80.6247 10.2245C80.5527 10.1285 80.4447 10.0805 80.3007 10.0805ZM95.2632 15.4085C95.2392 15.5045 95.2272 15.5705 95.2272 15.6065C95.2272 15.6905 95.2512 15.7565 95.2992 15.8045C95.3472 15.8525 95.4072 15.8765 95.4792 15.8765C95.6232 15.8765 95.7432 15.8165 95.8392 15.6965C95.9472 15.5645 96.0192 15.4985 96.0552 15.4985C96.1152 15.4985 96.1632 15.5405 96.1992 15.6245C96.2352 15.7085 96.2532 15.8045 96.2532 15.9125C96.2652 16.2365 96.1392 16.5665 95.8752 16.9025C95.6232 17.2385 95.2812 17.5145 94.8492 17.7305C94.4172 17.9465 93.9492 18.0545 93.4452 18.0545C92.8452 18.0545 92.3232 17.9405 91.8792 17.7125C91.4352 17.4845 91.1292 17.1845 90.9612 16.8125C90.6372 17.2325 90.2652 17.5445 89.8452 17.7485C89.4252 17.9525 88.9812 18.0545 88.5132 18.0545C87.9612 18.0545 87.4452 17.9165 86.9652 17.6405C86.4972 17.3645 86.1192 16.9745 85.8312 16.4705C85.5552 15.9545 85.4172 15.3725 85.4172 14.7245C85.4172 13.6325 85.6212 12.6065 86.0292 11.6465C86.4492 10.6745 87.0312 9.89449 87.7752 9.30649C88.5192 8.70649 89.3652 8.40649 90.3132 8.40649C90.8292 8.40649 91.2672 8.46649 91.6272 8.58649C91.9992 8.70649 92.3352 8.88649 92.6352 9.12649L93.2472 7.11049C93.2832 7.00249 93.3012 6.91249 93.3012 6.84049C93.3012 6.70849 93.2652 6.60049 93.1932 6.51649C93.1332 6.43249 93.0492 6.34849 92.9412 6.26449C92.8212 6.16849 92.7312 6.08449 92.6712 6.01249C92.6232 5.94049 92.6172 5.84449 92.6532 5.72449C92.7252 5.44849 93.1032 5.20849 93.7872 5.00449C94.4712 4.80049 95.1852 4.69849 95.9292 4.69849C96.6252 4.69849 97.1352 4.83049 97.4592 5.09449C97.7952 5.35849 97.9632 5.71849 97.9632 6.17449C97.9632 6.43849 97.9212 6.69649 97.8372 6.94849L95.2632 15.4085ZM92.2572 10.3505C92.0652 10.1825 91.8552 10.0985 91.6272 10.0985C91.2792 10.0985 90.9372 10.3565 90.6012 10.8725C90.2652 11.3885 89.9952 12.0125 89.7912 12.7445C89.5872 13.4765 89.4912 14.1365 89.5032 14.7245C89.5032 15.3845 89.7192 15.7145 90.1512 15.7145C90.3072 15.7145 90.4392 15.6545 90.5472 15.5345C90.6552 15.4025 90.7572 15.1925 90.8532 14.9045L92.2572 10.3505Z" fill="white"/>
</svg>
